
    <svg width="48" height="48" viewBox="0 0 48 48" fill="none" xmlns="http://www.w3.org/2000/svg">
    <title>github Icons</title>
    <rect data-testid="card-bg" x="0.5" y="0.5" rx="4.5" height="99%" width="99%" fill="none" stroke-opacity="1"/>
    <svg width="48" height="48" fill="none" xmlns="http://www.w3.org/2000/svg"><path d="M24 4C12.954 4 4 12.954 4 24c0 8.887 5.801 16.411 13.82 19.016h12.36C38.199 40.411 44 32.887 44 24c0-11.046-8.954-20-20-20z" fill="url(#paint0_linear)"/><path opacity=".05" d="M30.01 41.996L30 36.198c0-.94-.22-1.856-.642-2.687 5.641-1.133 8.386-4.468 8.386-10.177 0-2.255-.665-4.246-1.976-5.92.1-.317.174-.645.22-.981.188-1.37-.023-2.264-.193-2.984l-.027-.116c-.186-.796-.409-1.364-.418-1.388l-.111-.282-.111-.282-.302-.032-.303-.032s-.199-.021-.501-.021c-.419 0-1.04.042-1.627.24l-.196.067c-.74.249-1.439.485-2.417 1.069-.286.17-.599.366-.934.584A20.188 20.188 0 0024 12.69c-1.722 0-3.365.192-4.889.57-.339-.22-.654-.416-.942-.588-.978-.584-1.677-.82-2.417-1.07l-.196-.065c-.585-.2-1.207-.241-1.626-.241-.302 0-.501.02-.501.02l-.302.033-.3.03-.112.282-.113.283c-.01.026-.233.594-.419 1.39l-.027.116c-.17.719-.381 1.615-.193 2.983.048.346.125.685.23 1.01-1.285 1.667-1.936 3.647-1.936 5.89 0 5.696 2.748 9.029 8.397 10.17a6.005 6.005 0 00-.452 1.225 3.248 3.248 0 01-.538.137 4.963 4.963 0 01-.739.054c-.686 0-1.225-.134-1.435-.26-.313-.185-.872-.726-1.414-1.517-.463-.675-1.185-1.558-1.992-1.927-.698-.32-1.437-.502-2.029-.502-.138 0-.265.01-.376.028-.517.082-.949.366-1.184.78a1.313 1.313 0 00-.088 1.14c.219.549.851.986 1.343 1.256.242.133.765.619 1.07 1.109.229.368.335.63.482.992.087.215.183.449.313.732.47 1.022 1.937 1.924 2.103 2.023.806.483 2.161.638 3.157.683l.123.003h.001c.24 0 .57-.023 1.004-.071V42c.002.529-.537.649-1.25.638l.547.184A19.85 19.85 0 0024 44c2.355 0 4.605-.428 6.703-1.176l.703-.262c-.711-.024-1.39-.14-1.396-.566z" fill="#000"/><path opacity=".07" d="M30.781 42.797c-.406.047-1.281-.11-1.281-.795v-5.804a5.445 5.445 0 00-.936-3.052c5.915-.957 8.679-4.093 8.679-9.812 0-2.237-.686-4.194-2.039-5.822.137-.365.233-.75.288-1.147.175-1.276-.016-2.086-.184-2.801l-.027-.116a10.279 10.279 0 00-.397-1.32l-.111-.281-.303-.032s-.178-.02-.449-.02c-.381 0-.944.038-1.466.216l-.196.066c-.714.24-1.389.468-2.321 1.024-.332.198-.702.43-1.101.694-1.533-.401-3.192-.605-4.937-.605-1.762 0-3.435.205-4.979.61a31.394 31.394 0 00-1.109-.7c-.932-.555-1.607-.783-2.321-1.023l-.196-.066c-.521-.177-1.085-.215-1.466-.215a4.68 4.68 0 00-.449.019l-.302.032-.113.283c-.009.022-.219.558-.397 1.319l-.027.116c-.169.715-.36 1.524-.184 2.8.056.407.156.8.298 1.174-1.327 1.62-1.999 3.567-1.999 5.795 0 5.703 2.766 8.838 8.686 9.806a5.445 5.445 0 00-.813 1.964 4.22 4.22 0 01-.891.256c-.263.04-.537.06-.814.06-.69 0-1.353-.13-1.69-.33-.44-.26-1.057-.913-1.572-1.664-.35-.51-1.047-1.417-1.788-1.755-.635-.29-1.298-.457-1.821-.457-.11 0-.21.008-.298.022-.366.058-.668.252-.828.534a.815.815 0 00-.059.708c.179.448.842.85 1.119 1.002.335.184.919.744 1.254 1.284.251.404.37.697.521 1.067.085.209.178.437.304.712.331.719 1.353 1.472 1.905 1.803.754.452 2.154.578 2.922.612l.111.002c.299 0 .8-.045 1.495-.135v3.177c0 .779-.991.81-1.234.81-.031 0 .503.184.503.184A19.946 19.946 0 0024 44c2.178 0 4.269-.36 6.231-1.003 0 0 .581-.204.55-.2z" fill="#000"/><path d="M36.744 23.334c0-2.31-.782-4.226-2.117-5.728.145-.325.296-.761.371-1.309.172-1.25-.031-2-.203-2.734-.172-.734-.375-1.25-.375-1.25s-.922-.094-1.703.172-1.453.469-2.422 1.047c-.453.27-.909.566-1.27.806-1.543-.428-3.24-.648-5.025-.648-1.801 0-3.513.221-5.067.652a31.422 31.422 0 00-1.277-.811c-.969-.578-1.641-.781-2.422-1.047-.781-.266-1.703-.172-1.703-.172s-.203.516-.375 1.25-.375 1.484-.203 2.734c.077.562.233 1.006.382 1.333-1.31 1.493-2.078 3.397-2.078 5.704 0 5.983 3.232 8.714 9.121 9.435a4.972 4.972 0 00-1.303 2.691c-.387.17-.833.33-1.262.394-1.104.167-2.271 0-2.833-.333-.562-.333-1.229-1.083-1.729-1.813-.422-.616-1.031-1.331-1.583-1.583-.729-.333-1.438-.458-1.833-.396-.396.063-.583.354-.5.563.083.208.479.521.896.75.417.229 1.063.854 1.438 1.458.418.674.5 1.063.854 1.833.249.542 1.101 1.219 1.708 1.583.521.313 1.562.491 2.688.542.389.018 1.308-.096 2.083-.206v3.75c0 .639-.585 1.125-1.191 1.013 1.945.654 4.022.986 6.189.986 2.166 0 4.243-.332 6.19-.984-.605.111-1.19-.375-1.19-1.014v-5.804a4.97 4.97 0 00-1.373-3.425c5.846-.702 9.117-3.368 9.117-9.439zm-25.505 9.393c-.154-.079-.237-.225-.185-.328.052-.103.22-.122.374-.043s.237.225.185.328c-.052.103-.22.122-.374.043zm1.212.755c-.081.088-.255.06-.389-.062s-.177-.293-.096-.381c.081-.088.255-.06.389.062s.177.293.096.381zm.754 1.25c-.102.072-.275.005-.386-.15-.111-.155-.118-.34-.016-.412.102-.072.275-.005.386.15.11.155.118.34.016.412zm1.083.941c-.069.112-.265.117-.437.012-.172-.105-.256-.281-.187-.393.069-.112.265-.117.437-.012.172.105.256.281.187.393zm1.024.921c-.213-.026-.371-.159-.353-.297.017-.138.204-.228.416-.202.213.026.371.159.353.297-.017.137-.203.228-.416.202zm1.651.239c-.227-.013-.404-.143-.395-.289.009-.146.2-.255.427-.242.227.013.404.143.395.289-.009.147-.2.255-.427.242zm1.558-.156c-.242 0-.438-.126-.438-.281 0-.155.196-.281.438-.281s.438.126.438.281c0 .155-.197.281-.438.281z" fill="#fff"/><defs><linearGradient id="paint0_linear" x1="4" y1="23.508" x2="44" y2="23.508" gradientUnits="userSpaceOnUse"><stop stop-color="#4C4C4C"/><stop offset="1" stop-color="#343434"/></linearGradient></defs></svg>
    <path d="M29.2516 33.093C33.73 30.5067 37.4716 27.0685 39.6534 23.5348C41.8352 20.0011 42.2785 16.6613 40.8857 14.2501C40.7862 14.0779 40.8277 13.8337 41.0009 13.5712C41.1742 13.3088 41.465 13.0496 41.8095 12.8506C42.154 12.6517 42.5239 12.5293 42.8378 12.5104C43.1518 12.4915 43.384 12.5776 43.4835 12.7499C44.8763 15.161 44.1593 18.6589 41.4903 22.4739C38.8213 26.289 34.4189 30.1088 29.2516 33.093V33.093Z" fill="gold">
                      <animateTransform attributeName="transform" type="rotate" from="180 0 0" to="0 0 0" dur="1s" repeatCount="indefinite" />
                      </path>
    
    </svg>