
    <svg width="48" height="48" viewBox="0 0 48 48" fill="none" xmlns="http://www.w3.org/2000/svg">
    <title>spring Icons</title>
    <rect data-testid="card-bg" x="0.5" y="0.5" rx="4.5" height="99%" width="99%" fill="none" stroke-opacity="1"/>
    <svg width="48" height="48" fill="none" xmlns="http://www.w3.org/2000/svg"><path d="M43.982 23.635c.069-4.261-.891-9.328-2.891-15.273L39.523 3.7l-2.13 4.433a9.1 9.1 0 01-.38.698C33.514 5.827 28.974 4 24 4 12.954 4 4 12.954 4 24s8.954 20 20 20 20-8.954 20-20c0-.123-.016-.242-.018-.365z" fill="#8BC34A"/><path d="M39.385 32.558C36.262 36.86 30.734 37.091 25.53 37h-8.719c4.428-1.593 7.063-1.972 9.754-3.4 5.068-2.665 10.078-8.496 11.12-14.562-1.93 5.836-7.778 10.85-13.108 12.889-3.652 1.393-10.248 2.745-10.248 2.745l-.267-.145c-4.49-2.259-4.626-12.313 3.537-15.559 3.574-1.423 6.993-.641 10.854-1.593 4.122-1.012 8.89-4.208 10.83-8.375 2.172 6.667 4.786 17.106.1 23.558zm-23.717 5.887c-.282.35-.713.555-1.163.555a1.503 1.503 0 01-1.495-1.5c0-.823.677-1.5 1.495-1.5.34 0 .677.118.94.336.64.519.74 1.469.223 2.109z" fill="#fff"/></svg>
    <path d="M29.2516 33.093C33.73 30.5067 37.4716 27.0685 39.6534 23.5348C41.8352 20.0011 42.2785 16.6613 40.8857 14.2501C40.7862 14.0779 40.8277 13.8337 41.0009 13.5712C41.1742 13.3088 41.465 13.0496 41.8095 12.8506C42.154 12.6517 42.5239 12.5293 42.8378 12.5104C43.1518 12.4915 43.384 12.5776 43.4835 12.7499C44.8763 15.161 44.1593 18.6589 41.4903 22.4739C38.8213 26.289 34.4189 30.1088 29.2516 33.093V33.093Z" fill="gold">
                      <animateTransform attributeName="transform" type="rotate" from="180 0 0" to="0 0 0" dur="1s" repeatCount="indefinite" />
                      </path>
    
    </svg>