
    <svg width="48" height="48" viewBox="0 0 48 48" fill="none" xmlns="http://www.w3.org/2000/svg">
    <title>dev Icons</title>
    <rect data-testid="card-bg" x="0.5" y="0.5" rx="4.5" height="99%" width="99%" fill="none" stroke-opacity="1"/>
    <svg width="48" height="48" fill="none" xmlns="http://www.w3.org/2000/svg"><path d="M14.725 20.773c-.346-.227-.694-.34-1.04-.34h-1.557v8.162h1.558c.346 0 .694-.114 1.04-.34.346-.227.52-.567.52-1.02v-5.442c-.001-.453-.176-.794-.521-1.02zM40.08 7H7.92C5.759 7 4.005 8.53 4 10.422v28.156C4.005 40.47 5.759 42 7.92 42h32.16c2.162 0 3.915-1.53 3.92-3.422V10.422C43.995 8.53 42.241 7 40.08 7zM17.768 27.25c0 1.469-1.037 3.695-4.318 3.69H9.307V18.015h4.23c3.165 0 4.23 2.224 4.23 3.694v5.541zm8.99-6.927H22v3.001h2.908v2.31H22v3.001h4.758v2.31h-5.552c-.996.023-1.825-.666-1.85-1.538v-9.774c-.024-.871.764-1.595 1.76-1.617h5.642v2.307zm9.253 9.007c-1.179 2.402-3.29 1.924-4.236 0l-3.44-11.313h2.908l2.652 8.885 2.64-8.885h2.91L36.01 29.33z" fill="#000"/></svg>
    <path d="M29.2516 33.093C33.73 30.5067 37.4716 27.0685 39.6534 23.5348C41.8352 20.0011 42.2785 16.6613 40.8857 14.2501C40.7862 14.0779 40.8277 13.8337 41.0009 13.5712C41.1742 13.3088 41.465 13.0496 41.8095 12.8506C42.154 12.6517 42.5239 12.5293 42.8378 12.5104C43.1518 12.4915 43.384 12.5776 43.4835 12.7499C44.8763 15.161 44.1593 18.6589 41.4903 22.4739C38.8213 26.289 34.4189 30.1088 29.2516 33.093V33.093Z" fill="gold">
                      <animateTransform attributeName="transform" type="rotate" from="180 0 0" to="0 0 0" dur="1s" repeatCount="indefinite" />
                      </path>
    
    </svg>