
    <svg width="48" height="48" viewBox="0 0 48 48" fill="none" xmlns="http://www.w3.org/2000/svg">
    <title>ubuntu Icons</title>
    <rect data-testid="card-bg" x="0.5" y="0.5" rx="4.5" height="99%" width="99%" fill="none" stroke-opacity="1"/>
    <svg width="48" height="48" fill="none" xmlns="http://www.w3.org/2000/svg"><path d="M24.5 4C13.175 4 4 13.105 4 24.344c0 11.238 9.175 20.343 20.5 20.343S45 35.582 45 24.345C45 13.105 35.825 4 24.5 4zm4.356 7.629a2.647 2.647 0 013.596-.96 2.606 2.606 0 01.967 3.577 2.647 2.647 0 01-3.596.96 2.61 2.61 0 01-.967-3.577zM11.225 26.96a2.629 2.629 0 01-2.637-2.617 2.629 2.629 0 012.637-2.617 2.629 2.629 0 012.636 2.617 2.628 2.628 0 01-2.636 2.616zm2.322.254a3.659 3.659 0 000-5.734c.711-2.69 2.406-4.98 4.67-6.489l1.96 3.249c-4.257 2.977-4.257 9.228 0 12.206l-1.96 3.248a11.301 11.301 0 01-4.67-6.48zm18.905 10.803a2.638 2.638 0 01-3.596-.96 2.605 2.605 0 01.967-3.576 2.64 2.64 0 013.596.96 2.606 2.606 0 01-.967 3.576zm.025-5.7c-2.207-.846-4.637.54-5.001 2.87-.43.115-4.042 1.173-7.993-.77l1.86-3.307c4.711 2.174 10.2-.96 10.654-6.103l3.811.058a11.239 11.239 0 01-3.331 7.251zm-.488-8.639c-.446-5.086-5.894-8.301-10.655-6.103l-1.86-3.306c3.96-1.944 7.564-.886 7.994-.77.363 2.32 2.794 3.715 5 2.87a11.151 11.151 0 013.323 7.26l-3.802.05z" fill="#D64613"/></svg>
    <path d="M29.2516 33.093C33.73 30.5067 37.4716 27.0685 39.6534 23.5348C41.8352 20.0011 42.2785 16.6613 40.8857 14.2501C40.7862 14.0779 40.8277 13.8337 41.0009 13.5712C41.1742 13.3088 41.465 13.0496 41.8095 12.8506C42.154 12.6517 42.5239 12.5293 42.8378 12.5104C43.1518 12.4915 43.384 12.5776 43.4835 12.7499C44.8763 15.161 44.1593 18.6589 41.4903 22.4739C38.8213 26.289 34.4189 30.1088 29.2516 33.093V33.093Z" fill="gold">
                      <animateTransform attributeName="transform" type="rotate" from="180 0 0" to="0 0 0" dur="1s" repeatCount="indefinite" />
                      </path>
    
    </svg>