
    <svg width="48" height="48" viewBox="0 0 48 48" fill="none" xmlns="http://www.w3.org/2000/svg">
    <title>oracle Icons</title>
    <rect data-testid="card-bg" x="0.5" y="0.5" rx="4.5" height="99%" width="99%" fill="none" stroke-opacity="1"/>
    <svg width="48" height="48" fill="none" xmlns="http://www.w3.org/2000/svg"><path d="M2.861 21.998h2.917c1.05 0 2.261.896 2.261 2s-1.21 2-2.261 2H2.861c-1.05 0-1.861-.895-1.861-2s.811-2 1.861-2zm40.16-1c-1.401 0-2.521 1.343-2.521 3s1.13 3 2.521 3h4.019l.96-1h-5c-.898-.047-1.289-.638-1.5-1.5h5.54l.96-1h-6.5c.213-.861.592-1.495 1.5-1.5h4.04l.96-1h-4.979zm-9.021 0v5.426c0 .148.095.292.201.402.106.11.249.172.405.172L38.54 27l1-1-4.54-.002V21l-1-.002zm-6.158 0c-1.591 0-2.851 1.346-2.851 3.003s1.26 2.997 2.851 2.997l3.649-.012 1.149-.988h-4.819c-1.05 0-1.84-.894-1.84-1.999s.79-2.001 1.84-2.001l3.689.016 1.13-1.016h-4.798zm-6.842 0c-.258 0-.522.215-.67.483l-2.83 5.517h1l2.5-5 1.691 3H20.04l.941.98 2.181-.006.658 1.025 1.081-.009-3.277-5.507c-.23-.369-.374-.483-.624-.483zm-11 0v6h1v-5h3c.515 0 1 .464 1 1s-.485 1-1 1h-2.5l3.481 3H16.5l-2.5-2 .337-.009c.74.001 1.663-.87 1.663-1.991s-.687-1.986-1.553-2H10zm-7.118 0c-1.591 0-2.882 1.344-2.882 3s1.291 3 2.882 3H5.76c1.591 0 3.24-1.343 3.24-3s-1.649-3-3.24-3H2.882z" fill="#EF0F14"/></svg>
    <path d="M29.2516 33.093C33.73 30.5067 37.4716 27.0685 39.6534 23.5348C41.8352 20.0011 42.2785 16.6613 40.8857 14.2501C40.7862 14.0779 40.8277 13.8337 41.0009 13.5712C41.1742 13.3088 41.465 13.0496 41.8095 12.8506C42.154 12.6517 42.5239 12.5293 42.8378 12.5104C43.1518 12.4915 43.384 12.5776 43.4835 12.7499C44.8763 15.161 44.1593 18.6589 41.4903 22.4739C38.8213 26.289 34.4189 30.1088 29.2516 33.093V33.093Z" fill="red">
                      <animateTransform attributeName="transform" type="rotate" from="180 0 0" to="0 0 0" dur="1s" repeatCount="indefinite" />
                      </path>
    
    </svg>