
    <svg width="48" height="48" viewBox="0 0 48 48" fill="none" xmlns="http://www.w3.org/2000/svg">
    <title>jb_pycharm Icons</title>
    <rect data-testid="card-bg" x="0.5" y="0.5" rx="4.5" height="99%" width="99%" fill="white" stroke-opacity="1"/>
    <svg width="48" height="48" fill="none" xmlns="http://www.w3.org/2000/svg"><path d="M32.057 10.286l11.657 9.771-4.171 8.514-7.086-1.943H26.4l5.657-16.342z" fill="url(#paint0_linear)"/><path d="M20.286 16.629L18 28.57l-.229 4.115-5.657 2.457L4 36l2.457-25.886L21.086 4l9.028 5.943-9.828 6.686z" fill="url(#paint1_linear)"/><path d="M20.286 16.628l1.085 23.086L17.714 44 4 36l11.257-16.8 5.029-2.572z" fill="url(#paint2_linear)"/><path d="M35.371 14.914H21.486L33.77 4l1.6 10.914z" fill="url(#paint3_linear)"/><path d="M44 39.771l-12.229 4.172-16.228-4.572 4.743-22.742 1.885-1.715L32.057 14l-.914 9.943 7.886-3.029L44 39.771z" fill="url(#paint4_linear)"/><path d="M11.657 11.657h24.686v24.686H11.657V11.657z" fill="#000"/><path d="M14 31.714h9.257v1.543H14v-1.543zm-.057-16.8h4.114c2.457 0 3.943 1.429 3.943 3.543 0 2.343-1.829 3.657-4.114 3.657H16.17v3.029h-2.228V14.914zm4 5.143c1.143 0 1.771-.743 1.771-1.6 0-1.028-.685-1.543-1.828-1.543H16.17v3.143h1.772zm4.971 0c0-2.914 2.172-5.314 5.315-5.314 1.943 0 3.085.628 4.057 1.6L30.857 18c-.8-.743-1.6-1.143-2.628-1.143-1.715 0-2.972 1.429-2.972 3.2 0 1.772 1.2 3.143 2.972 3.143 1.143 0 1.885-.457 2.685-1.2l1.429 1.429c-1.029 1.143-2.229 1.828-4.172 1.828-3.028.057-5.257-2.286-5.257-5.2z" fill="#fff"/><defs><linearGradient id="paint0_linear" x1="18.285" y1="19.455" x2="42.089" y2="19.455" gradientUnits="userSpaceOnUse"><stop stop-color="#21D789"/><stop offset="1" stop-color="#07C3F2"/></linearGradient><linearGradient id="paint1_linear" x1="-10.034" y1="37.761" x2="38.983" y2="1.577" gradientUnits="userSpaceOnUse"><stop offset=".011" stop-color="#FCF84A"/><stop offset=".112" stop-color="#A7EB62"/><stop offset=".206" stop-color="#5FE077"/><stop offset=".273" stop-color="#32DA84"/><stop offset=".306" stop-color="#21D789"/><stop offset=".577" stop-color="#21D789"/><stop offset=".597" stop-color="#21D789"/><stop offset=".686" stop-color="#20D68C"/><stop offset=".763" stop-color="#1ED497"/><stop offset=".835" stop-color="#19D1A9"/><stop offset=".904" stop-color="#13CCC2"/><stop offset=".971" stop-color="#0BC6E1"/><stop offset="1" stop-color="#07C3F2"/></linearGradient><linearGradient id="paint2_linear" x1="9.331" y1="48.374" x2="17.507" y2="22.72" gradientUnits="userSpaceOnUse"><stop stop-color="#21D789"/><stop offset=".164" stop-color="#24D788"/><stop offset=".305" stop-color="#2FD886"/><stop offset=".437" stop-color="#41DA82"/><stop offset=".564" stop-color="#5ADC7D"/><stop offset=".688" stop-color="#7AE077"/><stop offset=".809" stop-color="#A1E36E"/><stop offset=".925" stop-color="#CFE865"/><stop offset="1" stop-color="#F1EB5E"/></linearGradient><linearGradient id="paint3_linear" x1="20.157" y1="26.07" x2="37.948" y2="2.151" gradientUnits="userSpaceOnUse"><stop stop-color="#21D789"/><stop offset=".061" stop-color="#24D788"/><stop offset=".113" stop-color="#2FD886"/><stop offset=".162" stop-color="#41DA82"/><stop offset=".209" stop-color="#5ADD7D"/><stop offset=".255" stop-color="#79E077"/><stop offset=".258" stop-color="#7CE076"/><stop offset=".499" stop-color="#8CE173"/><stop offset=".925" stop-color="#B2E56B"/></linearGradient><linearGradient id="paint4_linear" x1="47.365" y1="29.114" x2="11.519" y2="28.782" gradientUnits="userSpaceOnUse"><stop offset=".387" stop-color="#FCF84A"/><stop offset=".536" stop-color="#ECF451"/><stop offset=".826" stop-color="#C2E964"/><stop offset=".925" stop-color="#B2E56B"/></linearGradient></defs></svg>
    <path d="M29.2516 33.093C33.73 30.5067 37.4716 27.0685 39.6534 23.5348C41.8352 20.0011 42.2785 16.6613 40.8857 14.2501C40.7862 14.0779 40.8277 13.8337 41.0009 13.5712C41.1742 13.3088 41.465 13.0496 41.8095 12.8506C42.154 12.6517 42.5239 12.5293 42.8378 12.5104C43.1518 12.4915 43.384 12.5776 43.4835 12.7499C44.8763 15.161 44.1593 18.6589 41.4903 22.4739C38.8213 26.289 34.4189 30.1088 29.2516 33.093V33.093Z" fill="red">
                      <animateTransform attributeName="transform" type="rotate" from="180 0 0" to="0 0 0" dur="1s" repeatCount="indefinite" />
                      </path>
    
    </svg>