
    <svg width="48" height="48" viewBox="0 0 48 48" fill="none" xmlns="http://www.w3.org/2000/svg">
    <title>postgresql Icons</title>
    <rect data-testid="card-bg" x="0.5" y="0.5" rx="4.5" height="99%" width="99%" fill="white" stroke-opacity="1"/>
    <svg width="48" height="48" fill="none" xmlns="http://www.w3.org/2000/svg"><path d="M44.083 29.79c-.183-.83-.935-1.796-2.452-1.796-.31 0-.649.039-1.035.119-.708.146-1.311.217-1.842.24 4.133-7.04 6.816-16.818 4.159-20.213-3.501-4.473-8.214-5.141-10.711-5.141h-.235c-.929.016-1.893.13-2.863.34l-3.583.774A14.004 14.004 0 0024.018 4h-.046l-.152-.001c-1.593 0-3.046.338-4.341.973l-1.251-.493c-1.72-.678-4.308-1.485-6.868-1.485-.144 0-.287.003-.431.008-2.522.09-4.688 1.048-6.265 2.767-1.968 2.146-2.864 5.285-2.661 9.33.01.21 2.458 20.9 9.397 20.9h.089c.901-.022 1.76-.384 2.563-1.077.613.46 1.406.732 2.145.84.488.115 1.366.278 2.418.278 1.284 0 2.442-.263 3.44-.738-.001.88-.006 1.994-.016 3.418l-.001.075.005.075c.097 1.419.342 2.698.711 3.7 1.051 2.86 2.866 4.435 5.111 4.435.093 0 .188-.003.284-.01 1.846-.113 3.717-1.15 5.004-2.771 1.393-1.755 1.715-3.607 1.839-5.026L35 39.11v-4.168l.103.01.436.039.042.004.042.002c.124.006.252.008.381.008 1.507 0 3.362-.391 4.616-.974 1.199-.556 3.939-2.084 3.463-4.242z" fill="#fff"/><path d="M33 34c0-.205.012-.376.018-.565L33 33l.032-.022c.149-2.673.886-3.703 1.675-4.29-.11-.153-.237-.318-.356-.475-.333-.437-.748-.979-1.192-1.674l-.082-.158c-.067-.164-.229-.447-.435-.819-1.183-2.14-3.645-6.592-1.96-9.404.738-1.232 2.122-1.942 4.121-2.117-.817-2.323-3.878-7.926-10.818-8.04h-.006c-6.041-.099-8.026 5.391-8.672 8.671.89-.377 1.906-.606 2.836-.606h.043c2.29.017 3.865 1.24 4.323 3.354.335 1.552.496 2.91.492 4.153-.01 2.72-.558 4.15-1.042 5.411l-.154.408c-.124.334-.255.645-.379.937a12.31 12.31 0 00-.318.802c.484.11.864.265 1.125.38l.151.066c.047.02.094.043.137.07.848.515 1.376 1.308 1.489 2.232.061.498.051 3.893.03 6.855.087 1.285.305 2.364.593 3.146.409 1.114 1.431 3.241 3.394 3.12 1.37-.086 2.687-.92 3.561-2.02.938-1.18 1.284-2.487 1.414-3.958V34H33z" fill="#0277BD"/><path d="M15.114 28.917c-1.613-1.683-2.399-3.947-2.104-6.056.285-2.035.124-4.027.037-5.098a11.082 11.082 0 01-.047-.77c0-.008.002-.015.003-.023l-.002-.01c.121-3.022 1.286-7.788 4.493-10.62C15.932 5.723 13.388 4.912 11 5c-3.742.136-7.364 2.724-7 10 .137 2.73 3.222 19.103 7.44 19 .603-.015 1.229-.402 1.872-1.176a93.536 93.536 0 012.708-3.104 7.618 7.618 0 01-.906-.803zm21.909-14.186c.015.154.002.286-.022.408.031.92-.068 1.813-.169 2.677-.074.636-.15 1.293-.171 1.952-.021.645.07 1.282.166 1.956.225 1.578.459 3.36-.765 5.437.225.296.423.571.581.837 4.61-7.475 6.468-16.36 4.695-18.626-2.683-3.428-6.397-4.42-9.339-4.372-.921.015-1.758.14-2.473.294 5.076 2.46 7.337 7.732 7.497 9.437zM41 30.071c-2.665.55-3.947.257-4.569-.126-.1.072-.2.133-.293.19-.372.225-.961.583-1.105 2.782.083.016.156.025.246.044l.435.04c1.32.06 3.049-.31 4.063-.782 2.185-1.014 3.376-2.592 1.223-2.148zM22.023 32.12c-.037-.298-.198-.539-.492-.732l-.108-.047c-.361-.159-.77-.34-1.423-.34h-.004c-.127.01-.253.02-.38.02-.052 0-.103-.008-.155-.01-.474.365-1.148.647-2.816.99-2.98.76-1.221 1.655-.078 1.794 1.106.277 3.735.614 5.481-.809a13.664 13.664 0 00-.025-.866z" fill="#0277BD"/><path d="M20.681 18.5c-.292.303-.753.567-1.262.485-.828-.134-1.463-1.133-1.417-1.508.044-.374.751-.57 1.578-.435.287.047.548.128.768.228-.32-.688-.899-1.085-1.782-1.182-1.565-.174-3.226.644-3.56 1.097.007.11.02.25.033.417.093 1.147.265 3.284-.05 5.537-.208 1.485.393 3.169 1.567 4.395.757.79 1.641 1.29 2.513 1.438.111-.478.309-.944.513-1.425.113-.265.233-.547.346-.852l.162-.427c.443-1.155.9-2.35.909-4.703.004-.905-.107-1.938-.318-3.064zm14.166 3.507c-.104-.73-.211-1.484-.185-2.303.023-.742.105-1.442.184-2.12.062-.532.11-1.044.138-1.55-1.289.108-2.145.48-2.551 1.109.168-.057.358-.102.568-.13.892-.115 1.543.142 1.618.638.055.363-.253.705-.388.836a1.75 1.75 0 01-.981.488 1.559 1.559 0 01-.192.012c-.353 0-.69-.121-.949-.3.112 1.973 1.567 4.612 2.283 5.907.153.277.271.498.369.688.393-1.12.248-2.14.086-3.275z" fill="#0277BD"/></svg>
    <path d="M29.2516 33.093C33.73 30.5067 37.4716 27.0685 39.6534 23.5348C41.8352 20.0011 42.2785 16.6613 40.8857 14.2501C40.7862 14.0779 40.8277 13.8337 41.0009 13.5712C41.1742 13.3088 41.465 13.0496 41.8095 12.8506C42.154 12.6517 42.5239 12.5293 42.8378 12.5104C43.1518 12.4915 43.384 12.5776 43.4835 12.7499C44.8763 15.161 44.1593 18.6589 41.4903 22.4739C38.8213 26.289 34.4189 30.1088 29.2516 33.093V33.093Z" fill="red">
                      <animateTransform attributeName="transform" type="rotate" from="180 0 0" to="0 0 0" dur="1s" repeatCount="indefinite" />
                      </path>
    
    </svg>